<svg width="777" height="777" viewBox="0 0 777 777" fill="none" xmlns="http://www.w3.org/2000/svg">
<g clip-path="url(#clip0)">
<path d="M502.37 403.558C481.288 379.465 451.172 364.407 415.032 367.419C412.021 361.395 399.974 301.163 399.974 301.163C399.974 301.163 442.137 237.919 451.172 225.872C496.346 153.593 499.358 96.3721 472.253 39.1512C463.218 18.0698 439.125 0 415.032 0C396.963 0 381.905 15.0581 372.87 33.1279C342.753 84.3256 342.753 180.698 357.811 246.953C357.811 246.953 342.753 262.012 327.695 280.081C297.579 313.209 264.451 349.349 252.405 397.535C237.346 451.744 249.393 502.942 282.521 542.093C318.66 587.267 372.87 608.349 439.125 602.326C451.172 659.546 460.207 695.686 442.137 728.814C436.114 740.86 424.067 752.907 402.986 752.907C396.963 752.907 393.951 752.907 387.928 749.895C405.998 740.86 421.056 722.791 421.056 701.709C421.056 671.593 396.963 647.5 366.846 647.5C315.649 650.512 312.637 701.709 312.637 701.709C312.637 719.779 318.66 737.849 330.707 749.895C345.765 764.953 369.858 777 396.963 777C430.091 777 463.218 764.954 475.265 716.767C487.311 677.616 466.23 614.372 463.218 593.291C496.346 578.233 526.463 533.058 529.474 502.942C535.498 469.814 523.451 430.663 502.37 403.558ZM405.998 69.2674C409.009 63.2442 415.032 60.2326 421.056 60.2326C424.067 60.2326 430.091 63.2442 433.102 66.2558C445.149 72.2791 448.16 84.3256 448.16 102.395C445.149 147.57 405.998 201.779 384.916 219.849C375.881 177.686 381.905 99.3837 405.998 69.2674ZM318.66 542.093C297.579 521.012 288.544 490.895 291.556 460.779C297.579 412.593 330.707 373.442 357.811 343.326C363.835 337.302 369.858 331.279 372.87 325.256C375.881 340.314 384.916 364.407 387.928 376.453C351.788 391.512 330.707 439.698 333.718 478.849C333.718 496.919 339.742 508.965 348.777 521.012C351.788 524.023 354.8 527.035 357.811 527.035C360.823 527.035 366.846 524.023 366.846 521.012C369.858 518 369.858 511.977 366.846 508.965C363.835 505.953 363.835 502.942 363.835 496.919C360.823 469.814 378.893 448.733 399.974 439.698C402.986 457.767 424.067 551.128 427.079 572.209C387.928 584.256 345.765 572.209 318.66 542.093ZM454.184 560.163C448.16 539.081 445.149 514.988 439.125 487.884C436.114 469.814 433.102 448.733 427.079 430.663C466.23 430.663 478.277 463.791 481.288 475.837C490.323 508.965 481.288 542.093 454.184 560.163Z" fill="#F8F8F8"/>
</g>
<defs>
<clipPath id="clip0">
<rect width="777" height="777" fill="white"/>
</clipPath>
</defs>
</svg>
